<svg xmlns="http://www.w3.org/2000/svg" width="96" height="96" viewBox="0 0 96 96">
  <metadata><?xpacket begin="﻿" id="W5M0MpCehiHzreSzNTczkc9d"?>
<x:xmpmeta xmlns:x="adobe:ns:meta/" x:xmptk="Adobe XMP Core 5.6-c140 79.160451, 2017/05/06-01:08:21        ">
   <rdf:RDF xmlns:rdf="http://www.w3.org/1999/02/22-rdf-syntax-ns#">
      <rdf:Description rdf:about=""/>
   </rdf:RDF>
</x:xmpmeta>
                                                                                                    
                                                                                                    
                                                                                                    
                                                                                                    
                                                                                                    
                                                                                                    
                                                                                                    
                                                                                                    
                                                                                                    
                                                                                                    
                                                                                                    
                                                                                                    
                                                                                                    
                                                                                                    
                                                                                                    
                                                                                                    
                                                                                                    
                                                                                                    
                                                                                                    
                                                                                                    
                           
<?xpacket end="w"?></metadata>
<defs>
    <style>
      .cls-1 {
        fill: #333;
      }

      .cls-2 {
        fill: #ff6363;
        fill-rule: evenodd;
      }
    </style>
  </defs>
  <circle class="cls-1" cx="48" cy="48" r="48"/>
  <path id="_" data-name="" class="cls-2" d="M48,18.547A30.047,30.047,0,0,1,75.633,60.172a30.03,30.03,0,1,1-39.3-39.3A29.641,29.641,0,0,1,48,18.547h0Zm0,57.516a26.569,26.569,0,0,0,10.758-2.18,29.64,29.64,0,0,0,8.789-5.836,29.689,29.689,0,0,0,5.836-8.789,27.636,27.636,0,0,0,0-21.516,29.72,29.72,0,0,0-5.836-8.789,29.724,29.724,0,0,0-8.789-5.836,27.635,27.635,0,0,0-21.516,0,29.7,29.7,0,0,0-8.789,5.836,29.635,29.635,0,0,0-5.836,8.789,27.636,27.636,0,0,0,0,21.516,29.6,29.6,0,0,0,5.836,8.789,29.612,29.612,0,0,0,8.789,5.836A26.554,26.554,0,0,0,48,76.062h0Zm15.047-38.25a1.409,1.409,0,0,1,1.2-.562,1.834,1.834,0,0,1,1.336.562A2.168,2.168,0,0,1,66,39.148a1.41,1.41,0,0,1-.562,1.2L44.906,60.312a0.656,0.656,0,0,1-.492.352,3.155,3.155,0,0,1-.633.07,3.826,3.826,0,0,1-.773-0.07,0.649,0.649,0,0,1-.492-0.352L34.5,52.3a1.818,1.818,0,0,1-.562-1.336A1.949,1.949,0,0,1,35.7,49.2a1.835,1.835,0,0,1,1.336.562l6.75,6.75,19.266-18.7h0Z"/>
</svg>
