<svg xmlns="http://www.w3.org/2000/svg" width="20" height="20" viewBox="0 0 20 20">
  <metadata><?xpacket begin="﻿" id="W5M0MpCehiHzreSzNTczkc9d"?>
<x:xmpmeta xmlns:x="adobe:ns:meta/" x:xmptk="Adobe XMP Core 5.6-c140 79.160451, 2017/05/06-01:08:21        ">
   <rdf:RDF xmlns:rdf="http://www.w3.org/1999/02/22-rdf-syntax-ns#">
      <rdf:Description rdf:about=""/>
   </rdf:RDF>
</x:xmpmeta>
                                                                                                    
                                                                                                    
                                                                                                    
                                                                                                    
                                                                                                    
                                                                                                    
                                                                                                    
                                                                                                    
                                                                                                    
                                                                                                    
                                                                                                    
                                                                                                    
                                                                                                    
                                                                                                    
                                                                                                    
                                                                                                    
                                                                                                    
                                                                                                    
                                                                                                    
                                                                                                    
                           
<?xpacket end="w"?></metadata>
<defs>
    <style>
      .cls-1 {
        fill: #fff;
        fill-rule: evenodd;
      }
    </style>
  </defs>
  <path id="_" data-name="" class="cls-1" d="M19.993,18.98l-1.044,1.047-5.767-5.784a6.591,6.591,0,0,1-1.094.8,8.521,8.521,0,0,1-1.243.6,7.122,7.122,0,0,1-1.367.374,8.291,8.291,0,0,1-1.417.125A7.716,7.716,0,0,1,4.9,15.49a8.319,8.319,0,0,1-2.56-1.745A8,8,0,0,1,.629,11.177,7.912,7.912,0,0,1,.007,8.061,7.993,7.993,0,0,1,8.061-.016a7.868,7.868,0,0,1,3.107.623,8.016,8.016,0,0,1,2.56,1.72,8.388,8.388,0,0,1,1.74,2.568,7.793,7.793,0,0,1,.646,3.166,8.425,8.425,0,0,1-.124,1.421,7.271,7.271,0,0,1-.373,1.371,8.7,8.7,0,0,1-.6,1.246,6.6,6.6,0,0,1-.8,1.1l5.767,5.784h0ZM0.852,8.061A7.088,7.088,0,0,0,2.94,13.146a7.385,7.385,0,0,0,2.312,1.57,6.958,6.958,0,0,0,2.809.573,6.787,6.787,0,0,0,2.784-.573A7.546,7.546,0,0,0,14.7,10.853a6.848,6.848,0,0,0,.572-2.792A7.025,7.025,0,0,0,14.7,5.244a7.449,7.449,0,0,0-1.566-2.318A7.158,7.158,0,0,0,10.845,1.38,7.061,7.061,0,0,0,8.061.831a7.239,7.239,0,0,0-2.809.548A7.095,7.095,0,0,0,1.4,5.244,7.283,7.283,0,0,0,.852,8.061h0Z"/>
</svg>
