<svg xmlns="http://www.w3.org/2000/svg" width="96" height="96" viewBox="0 0 96 96">
  <metadata><?xpacket begin="﻿" id="W5M0MpCehiHzreSzNTczkc9d"?>
<x:xmpmeta xmlns:x="adobe:ns:meta/" x:xmptk="Adobe XMP Core 5.6-c140 79.160451, 2017/05/06-01:08:21        ">
   <rdf:RDF xmlns:rdf="http://www.w3.org/1999/02/22-rdf-syntax-ns#">
      <rdf:Description rdf:about=""/>
   </rdf:RDF>
</x:xmpmeta>
                                                                                                    
                                                                                                    
                                                                                                    
                                                                                                    
                                                                                                    
                                                                                                    
                                                                                                    
                                                                                                    
                                                                                                    
                                                                                                    
                                                                                                    
                                                                                                    
                                                                                                    
                                                                                                    
                                                                                                    
                                                                                                    
                                                                                                    
                                                                                                    
                                                                                                    
                                                                                                    
                           
<?xpacket end="w"?></metadata>
<defs>
    <style>
      .cls-1 {
        fill: #333;
      }

      .cls-2 {
        fill: #5474fd;
        fill-rule: evenodd;
      }
    </style>
  </defs>
  <circle class="cls-1" cx="48" cy="48" r="48"/>
  <path id="_" data-name="" class="cls-2" d="M76.266,73.812l-2.953,2.953L57,60.453a18.615,18.615,0,0,1-3.094,2.25,24.161,24.161,0,0,1-3.516,1.688,20.23,20.23,0,0,1-3.867,1.055,23.511,23.511,0,0,1-4.008.352,21.872,21.872,0,0,1-8.93-1.828,23.516,23.516,0,0,1-7.242-4.922A22.551,22.551,0,0,1,21.492,51.8a22.264,22.264,0,0,1-1.758-8.789A22.591,22.591,0,0,1,42.516,20.234,22.313,22.313,0,0,1,51.3,21.992a22.673,22.673,0,0,1,7.242,4.852,23.649,23.649,0,0,1,4.922,7.242,21.926,21.926,0,0,1,1.828,8.93,23.7,23.7,0,0,1-.352,4.008,20.475,20.475,0,0,1-1.055,3.867A24.491,24.491,0,0,1,62.2,54.406a18.664,18.664,0,0,1-2.25,3.094L76.266,73.812h0Zm-54.141-30.8a19.963,19.963,0,0,0,5.906,14.344,20.881,20.881,0,0,0,6.539,4.43,19.723,19.723,0,0,0,7.945,1.617,19.241,19.241,0,0,0,7.875-1.617,21.315,21.315,0,0,0,10.9-10.9,19.268,19.268,0,0,0,1.617-7.875,19.769,19.769,0,0,0-1.617-7.945,21.008,21.008,0,0,0-4.43-6.539,20.253,20.253,0,0,0-6.469-4.36,20.019,20.019,0,0,0-7.875-1.547,20.524,20.524,0,0,0-7.945,1.547,20.038,20.038,0,0,0-10.9,10.9,20.493,20.493,0,0,0-1.547,7.945h0Z"/>
</svg>
